<svg xmlns="http://www.w3.org/2000/svg" viewBox="0 0 17.8 15.9" width="17.8" height="15.9">
    <path d="m 8.9999107,10.921836 c -2.1095709,0 -3.8172534,-1.8232041 -3.9743942,-4.1336498 L 2.1079944,4.270607 C 1.7244614,4.8078472 1.3715221,5.3758328 1.0867227,5.9969203 a 0.89973157,1.0046094 0 0 0 0,0.9064778 c 1.5082672,3.2858659 4.4942084,5.5090509 7.913188,5.5090509 0.7484323,0 1.4704423,-0.124222 2.1663133,-0.324829 L 9.7230338,10.840781 a 4.008603,4.4758685 0 0 1 -0.7231231,0.08106 z m 8.7280943,1.80426 -3.074665,-2.65329 a 9.2128625,10.286764 0 0 0 2.259759,-3.1697195 0.89973157,1.0046094 0 0 0 0,-0.9064778 C 15.404829,2.7107445 12.418892,0.48756179 8.9999107,0.48756179 A 8.5703955,9.5694088 0 0 0 4.9025856,1.658312 l -3.538295,-3.0535777 a 0.44499863,0.49687016 0 0 0 -0.62466685,0.087264 l -0.54595772,0.78474459 a 0.44499863,0.49687016 0 0 0 0.0781529,0.69717103 L 16.635532,14.295272 a 0.44499863,0.49687016 0 0 0 0.624667,-0.08728 l 0.546234,-0.784723 a 0.44499863,0.49687016 0 0 0 -0.07842,-0.697175 z M 12.618307,8.3163716 11.52528,7.3729399 A 2.6352261,2.9424032 0 0 0 11.669899,6.4500035 2.6355044,2.9427138 0 0 0 8.2959786,3.5864791 1.3252618,1.4797413 0 0 1 8.554912,4.462523 1.2971714,1.4483763 0 0 1 8.5120809,4.7730672 L 6.4648093,3.0063834 A 3.9579849,4.4193492 0 0 1 8.9999107,1.9781719 4.0027627,4.4693471 0 0 1 13.004896,6.4500035 c 0,0.6717052 -0.147123,1.297763 -0.386589,1.8666793 z" fill="#565656" />
</svg>
