<svg xmlns="http://www.w3.org/2000/svg" viewBox="0 0 17.8 15.9" width="17.8" height="15.9">
   <path d="m 16.903261,5.981213 c -1.506392,-3.306562 -4.488619,-5.54375 -7.9033483,-5.54375 -3.414729,0 -6.39779,2.23875 -7.903348,5.544062 a 0.89861282,1.0109375 0 0 0 0,0.912188 c 1.506391,3.306562 4.488619,5.54375 7.903348,5.54375 3.4147293,0 6.3977903,-2.23875 7.9033483,-5.544062 a 0.89861282,1.0109375 0 0 0 0,-0.912188 z m -7.9033483,4.95625 a 4.0000076,4.5 0 1 1 4.0000073,-4.5 3.9980631,4.4978125 0 0 1 -4.0000073,4.5 z m 0,-7.5 A 2.647505,2.9784375 0 0 0 8.2968557,3.5559 1.3291692,1.4953125 0 0 1 6.4385187,5.646526 2.6605606,2.993125 0 1 0 8.9999127,3.437463 Z" fill="#565656" />
</svg>
